<svg width="122" height="24" viewBox="0 0 122 24" fill="none" xmlns="http://www.w3.org/2000/svg">
<path d="M7.21872 24C5.32984 24 2.66372 23.4632 0 21.1298L2.08982 18.8676C5.82497 22.1408 9.71686 20.8481 10.9185 19.7557C10.9989 19.6775 11.0793 19.6031 11.1596 19.5257C7.22595 19.1532 4.35004 16.4395 4.15151 16.2486C1.13895 13.3604 0.454134 9.44084 2.59861 7.3187C4.74309 5.19657 8.77724 5.79675 11.7914 8.67634C12.0558 8.92204 14.9929 11.7281 15.5692 15.2806C16.4374 14.6507 17.1427 13.8322 17.629 12.8903C18.1153 11.9483 18.3691 10.909 18.3703 9.85478C18.3778 8.96293 18.2001 8.0788 17.8479 7.25546C17.4957 6.43213 16.9762 5.68657 16.3207 5.06355C14.9503 3.76069 13.0107 3.04314 10.8703 3.04314V0C13.829 0 16.5393 1.02351 18.5021 2.88194C20.4352 4.71142 21.4986 7.18568 21.4986 9.85478C21.4954 11.8052 20.8963 13.7106 19.7776 15.3286C18.6589 16.9466 17.0712 18.2041 15.2163 18.9411C14.7895 20.0413 14.0661 21.0578 13.0533 21.9804C12.0575 22.8857 10.1099 23.8889 7.62945 23.9914C7.49683 23.9977 7.36019 24 7.21872 24ZM5.90374 9.07698C5.46729 9.07698 5.09193 9.19201 4.8299 9.45179C4.06068 10.2139 4.54697 12.3556 6.34984 14.085L6.35788 14.0936C6.3836 14.1178 9.20485 16.7815 12.547 16.5084V16.5029C12.5622 13.6296 9.6622 10.9057 9.63246 10.8783L9.61237 10.8595C8.54013 9.83209 7.02019 9.07698 5.90374 9.07698ZM42.7553 8.59809C42.5817 7.67474 41.798 6.2326 39.6077 6.24042C37.9777 6.2459 36.911 7.26863 36.9151 8.38212C36.9151 9.30547 37.53 10.0379 38.7959 10.2703L41.2072 10.7116C44.3476 11.2922 46.0339 13.2759 46.0428 15.6414C46.0524 18.2236 43.8484 20.8371 39.8336 20.8512C35.2601 20.8677 33.2297 18.0084 32.9524 15.6171L36.0639 14.801C36.2166 16.4583 37.4142 17.9466 39.8472 17.938C41.6477 17.9309 42.642 17.0514 42.638 15.8667C42.6339 14.8956 41.8768 14.1405 40.5377 13.8846L38.1264 13.4198C35.375 12.8846 33.5922 11.1616 33.5826 8.62704C33.5714 5.64259 36.3154 3.35926 39.5723 3.34753C43.7576 3.33266 45.3724 5.79049 45.7687 7.68413L42.7553 8.59809ZM52.6064 14.1296L52.6297 20.4537L49.2723 20.4655L49.2088 3.67148L55.6567 3.64879C59.0631 3.63705 61.3338 5.83196 61.3451 8.86336C61.3571 11.919 59.1025 14.1061 55.6961 14.1186L52.6064 14.1296ZM55.2717 11.3008C56.9508 11.2954 57.9692 10.3438 57.9636 8.89935C57.9579 7.40713 56.9323 6.48691 55.254 6.49473L52.6016 6.50412L52.6193 11.3126L55.2717 11.3008ZM69.4182 13.9809L67.6668 13.9872L67.6909 20.4537H64.3086L64.2459 3.67148L70.9856 3.64801C74.3429 3.63549 76.4922 5.87813 76.5035 8.79215C76.5123 11.1396 75.1073 12.9183 72.8471 13.5654L76.5718 20.4232L72.8246 20.4365L69.4182 13.9809ZM70.3827 11.1584C72.0859 11.1529 73.0794 10.2014 73.0746 8.82736C73.0673 7.40634 72.0666 6.48613 70.3634 6.49473L67.6386 6.50412L67.6563 11.1709L70.3827 11.1584ZM98.154 20.4232L90.277 8.53705L90.3212 20.4514L86.9638 20.4631L86.9011 3.66913L91.0856 3.65427L98.3019 14.7407L98.2601 3.62923L101.617 3.61671L101.681 20.4107L98.154 20.4232ZM83.2383 20.4537L79.881 20.4655L79.815 3.67148L83.1909 3.65661L83.2383 20.4537ZM118.884 20.2432L118.658 18.3253C117.884 19.4654 116.185 20.6079 113.582 20.6173C108.934 20.6337 104.956 17.3308 104.936 11.9081C104.916 6.48534 109.064 3.12999 113.734 3.11199C118.26 3.09635 120.776 5.6692 121.636 8.24831L118.429 9.37276C117.986 7.88602 116.544 6.15826 113.746 6.16452C111.142 6.17391 108.327 7.9134 108.341 11.8924C108.356 15.682 110.918 17.6391 113.813 17.6289C117 17.6179 118.234 15.5287 118.424 14.3424L112.973 14.362L112.963 11.5192L121.576 11.4886L121.608 20.2291L118.884 20.2432Z" fill="#0F0F0F"/>
</svg>
